<?xml version="1.0" standalone="no"?>
<!DOCTYPE svg PUBLIC "-//W3C//DTD SVG 20010904//EN"
 "http://www.w3.org/TR/2001/REC-SVG-20010904/DTD/svg10.dtd">
<svg version="1.0" xmlns="http://www.w3.org/2000/svg"
 width="250.000000pt" height="250.000000pt" viewBox="0 0 250.000000 250.000000"
 preserveAspectRatio="xMidYMid meet">
<metadata>
Created by potrace 1.11, written by Peter Selinger 2001-2013
</metadata>
<g transform="translate(0.000000,250.000000) scale(0.100000,-0.100000)"
fill="#000000" stroke="none">
<path d="M2035 2213 c-63 -12 -112 -28 -130 -43 -11 -10 -30 -23 -42 -29 -13
-6 -23 -19 -23 -27 0 -8 -4 -13 -8 -10 -11 7 -84 -96 -106 -151 -15 -39 -19
-75 -20 -186 l-1 -137 -50 -30 c-157 -93 -204 -146 -205 -236 0 -42 21 -70 80
-108 41 -25 179 -56 253 -56 52 0 66 -3 60 -12 -4 -7 -8 -15 -8 -18 0 -3 -17
-33 -38 -68 -20 -35 -37 -66 -37 -69 0 -3 -19 -36 -42 -74 l-43 -70 -78 2
c-43 1 -80 6 -83 11 -3 4 -9 6 -14 3 -14 -9 -158 50 -190 77 -24 20 -46 80
-46 120 1 21 -2 38 -6 38 -4 0 -3 14 2 30 5 17 6 30 2 30 -8 0 -7 88 1 97 4 3
2 14 -4 24 -5 11 -7 19 -4 19 8 0 -23 58 -35 65 -34 21 -105 14 -96 -10 2 -7
2 -16 -2 -19 -3 -4 -7 -61 -9 -129 -2 -67 -6 -133 -10 -147 -3 -14 -7 -27 -7
-30 -7 -36 -42 -36 -141 0 -33 12 -68 21 -77 21 -10 0 -18 5 -18 11 0 6 -3 8
-7 5 -3 -4 -12 -2 -20 4 -7 6 -13 9 -13 6 0 -4 -19 0 -41 8 -64 23 -86 20
-105 -16 -20 -39 -12 -87 19 -112 20 -15 20 -19 6 -30 -10 -8 -15 -26 -14 -56
1 -36 8 -49 34 -73 28 -25 30 -30 18 -43 -8 -8 -18 -30 -21 -49 -9 -45 13 -80
64 -102 36 -16 37 -18 24 -43 -19 -37 -17 -85 4 -104 10 -10 22 -17 27 -17 5
0 16 -6 24 -14 9 -7 36 -19 61 -25 167 -46 206 -56 270 -65 8 -1 31 -5 50 -9
41 -7 104 -16 175 -23 44 -5 76 -9 97 -13 3 0 0 -20 -7 -43 -14 -48 -23 -102
-31 -198 -3 -36 -7 -71 -9 -77 -4 -10 104 -13 515 -13 l520 0 0 1065 0 1065
-25 16 c-14 9 -61 29 -105 44 -71 25 -95 28 -198 27 -64 0 -126 -2 -137 -4z"/>
</g>
</svg>
